<svg class="icon" width="128" height="128" style="vertical-align: middle;fill: currentColor;overflow: hidden;" viewBox="0 0 1024 1024" version="1.1" xmlns="http://www.w3.org/2000/svg" p-id="1869">
	<path d="M277.333333 1002.666667c-83.2 0-149.333333-66.133333-149.333333-149.333334V170.666667c0-83.2 66.133333-149.333333 149.333333-149.333334h576c23.466667 0 42.666667 19.2 42.666667 42.666667v896c0 23.466667-19.2 42.666667-42.666667 42.666667H277.333333z m0-213.333334c-36.266667 0-64 27.733333-64 64s27.733333 64 64 64h533.333334v-128H277.333333zM213.333333 170.666667v548.266666c19.2-10.666667 40.533333-14.933333 64-14.933333h533.333334V106.666667H277.333333c-36.266667 0-64 27.733333-64 64z" fill="#2F3CF4" p-id="1870"></path><path d="M362.666667 320h298.666666c23.466667 0 42.666667-19.2 42.666667-42.666667s-19.2-42.666667-42.666667-42.666666H362.666667c-23.466667 0-42.666667 19.2-42.666667 42.666666s19.2 42.666667 42.666667 42.666667M362.666667 469.333333h170.666666c23.466667 0 42.666667-19.2 42.666667-42.666666s-19.2-42.666667-42.666667-42.666667h-170.666666c-23.466667 0-42.666667 19.2-42.666667 42.666667s19.2 42.666667 42.666667 42.666666" fill="#2F3CF4" p-id="1871">
	</path>
</svg>